<?xml version="1.0" encoding="utf-8"?>
<svg version="1.1"
  xmlns="http://www.w3.org/2000/svg"
  xmlns:xlink="http://www.w3.org/1999/xlink" x="0px" y="0px" viewBox="0 0 1000 1000" enable-background="new 0 0 1000 1000" xml:space="preserve" fill="#38478a">
  <g>
    <path d="M500,10C229.7,10,10,229.7,10,500c0,270.3,219.7,490,490,490c270.3,0,490-219.7,490-490C990,229.7,770.3,10,500,10z M623.8,321.5C582.5,394.8,542.3,468,501,541.3c-2.1,4.1-5.2,7.2-8.3,10.3c-41.3,32-82.5,64-123.8,95.9c-5.2,4.1-9.3,9.3-12.4,14.4c-4.1,6.2-4.1,12.4,3.1,16.5c10.3,6.2,20.6,11.3,32,14.4c26.8,9.3,54.7,16.5,81.5,24.8c10.3,3.1,19.6,7.2,28.9,12.4c8.3,4.1,16.5,9.3,16.5,20.6s-9.3,15.5-18.6,18.6c-15.5,5.2-30.9,8.3-47.5,12.4c-2.1,0-4.1,1-6.2,1c-6.2,1-10.3-2.1-11.3-7.2c-1-5.2,2.1-10.3,8.3-11.3c11.3-3.1,23.7-5.2,35.1-7.2c6.2-1,12.4-4.1,18.6-6.2c0-1,0-2.1,0-2.1c-10.3-4.1-20.6-9.3-30.9-12.4c-26.8-8.3-54.7-16.5-81.5-24.8c-13.4-4.1-25.8-9.3-37.1-17.5c-14.4-11.3-17.5-26.8-7.2-42.3c4.1-7.2,10.3-12.4,15.5-19.6c2.1-2.1,3.1-5.2,4.1-8.3c3.1-49.5,6.2-98,9.3-147.5c0-3.1,1-6.2,3.1-9.3c50.5-86.7,100.1-173.3,150.6-258.9c1-1,2.1-3.1,3.1-4.1c43.3,21.7,85.6,43.3,128.9,65C643.4,286.5,634.1,304,623.8,321.5z"/>
    <path d="M406.1,490.7c0,9.3-1,18.6-2.1,27.9c-1,18.6-2.1,36.1-3.1,55.7c2.1-1,3.1-2.1,3.1-2.1c20.6-16.5,41.3-32,61.9-48.5c2.1-1,3.1-4.1,5.2-6.2c42.3-75.3,84.6-151.6,126.9-226.9c1-2.1,2.1-4.1,3.1-6.2c-20.6-10.3-41.3-20.6-61.9-30.9c-1,2.1-2.1,3.1-3.1,5.2c-42.3,72.2-83.6,144.4-125.9,216.6C408.2,480.4,406.1,485.6,406.1,490.7z"/>
  </g>
</svg>
