<?xml version="1.0" encoding="utf-8"?>
<!-- Svg Vector Icons : http://www.onlinewebfonts.com/icon -->
<!DOCTYPE svg PUBLIC "-//W3C//DTD SVG 1.1//EN" "http://www.w3.org/Graphics/SVG/1.1/DTD/svg11.dtd">
<svg version="1.1" xmlns="http://www.w3.org/2000/svg" xmlns:xlink="http://www.w3.org/1999/xlink" x="0px" y="0px" viewBox="0 0 1000 1000" enable-background="new 0 0 1000 1000" xml:space="preserve">
<metadata> Svg Vector Icons : http://www.onlinewebfonts.com/icon </metadata>
<g><path d="M953,981.2c-3.5,0-10.5,0-14-3.5L708.9,880l-195.3,97.7c-10.5,3.5-20.9,3.5-31.4,0L290.3,880L60.1,977.7c-14,7-27.9,3.5-38.4-3.5c-10.5-10.5-14-24.4-10.5-38.4L115.9,587c3.5-10.5,14-20.9,24.4-24.4l139.5-34.9c17.4-3.5,38.4,7,41.9,24.4c3.5,17.4-7,38.4-24.4,41.9l-118.6,31.4L102,883.5l174.4-76.7c10.5-3.5,20.9-3.5,27.9,0l195.3,97.7l195.3-97.7c10.5-3.5,20.9-3.5,27.9,0l167.4,69.8L789.1,621.9l-90.7-31.4c-17.4-7-27.9-24.4-20.9-45.3c7-20.9,24.4-27.9,45.3-20.9l104.6,34.9c10.5,3.5,17.4,10.5,20.9,20.9l139.5,348.8c3.5,13.9,3.5,27.9-7,38.4C970.5,977.7,963.5,981.2,953,981.2z"/><path d="M740.3,259.2c0-132.5-108.1-240.7-240.7-240.7c-132.5,0-240.7,108.1-240.7,240.7c0,136,240.7,446.4,240.7,446.4S740.3,395.2,740.3,259.2L740.3,259.2z M395,259.2c0-55.8,45.3-104.6,104.6-104.6c55.8,0,104.6,45.3,104.6,104.6c0,55.8-45.3,104.6-104.6,104.6C440.3,363.8,395,318.5,395,259.2L395,259.2z"/></g>
</svg>